<svg width="19" height="19" viewBox="0 0 19 19" fill="none" xmlns="http://www.w3.org/2000/svg">
<g clip-path="url(#clip0_128_106)">
<path d="M13.7716 7.79905C13.999 8.33653 14.1143 8.90889 14.1143 9.49984C14.1143 10.0909 13.999 10.6631 13.7716 11.2008C13.5515 11.7209 13.2361 12.1887 12.8339 12.5908C12.4319 12.9929 11.9642 13.3084 11.4439 13.5284C10.9062 13.7559 10.334 13.8712 9.74306 13.8712C9.15196 13.8712 8.57973 13.7559 8.04211 13.5284C7.52178 13.3084 7.05421 12.9929 6.65202 12.5908C6.24997 12.1887 5.93443 11.7209 5.71433 11.2008C5.487 10.6631 5.3717 10.0909 5.3717 9.49984C5.3717 8.90889 5.487 8.33653 5.71433 7.79905C5.93443 7.27872 6.24997 6.81102 6.65202 6.40897C7.05421 6.00678 7.52178 5.69139 8.04211 5.47129C8.57973 5.24382 9.15196 5.12866 9.74306 5.12866C10.334 5.12866 10.9062 5.24382 11.4439 5.47129C11.9642 5.69139 12.4319 6.00678 12.8339 6.40897C13.2361 6.81102 13.5515 7.27872 13.7716 7.79905Z" fill="#534340" fill-opacity="0.6"/>
<path d="M13.8366 0.340332H5.64934C2.85145 0.340332 0.583374 2.60853 0.583374 5.4064V13.5934C0.583374 16.3913 2.85145 18.6595 5.64934 18.6595H13.8366C16.6345 18.6595 18.9025 16.3913 18.9025 13.5934V5.4064C18.9025 2.60853 16.6345 0.340332 13.8366 0.340332ZM9.74302 15.9275C6.19307 15.9275 3.31533 13.0498 3.31533 9.49991C3.31533 5.95012 6.19307 3.07241 9.74302 3.07241C13.2928 3.07241 16.1706 5.95012 16.1706 9.49991C16.1706 13.0498 13.2928 15.9275 9.74302 15.9275ZM15.7436 4.74583C14.9596 4.74583 14.324 4.11021 14.324 3.32626C14.324 2.54216 14.9596 1.90654 15.7436 1.90654C16.5277 1.90654 17.1631 2.54216 17.1631 3.32626C17.1631 4.11021 16.5277 4.74583 15.7436 4.74583Z" fill="#534340" fill-opacity="0.6"/>
</g>
<defs>
<clipPath id="clip0_128_106">
<rect width="18.3191" height="18.3191" fill="white" transform="translate(0.583374 0.340332)"/>
</clipPath>
</defs>
</svg>
