<svg width="10" height="16" viewBox="0 0 10 16" fill="none" xmlns="http://www.w3.org/2000/svg">
<path d="M7.25081 7.72414C7.25081 8.33356 6.84772 8.82759 6.35049 8.82759H3.64951C3.15227 8.82759 2.74919 8.33356 2.74919 7.72414L2.74919 1.10345C2.74919 0.494031 3.15228 -5.3277e-08 3.64951 0L6.35049 2.89399e-07C6.84772 3.42676e-07 7.25081 0.494031 7.25081 1.10345L7.25081 7.72414Z" fill="#534340"/>
<path d="M5.56882 12.6731C5.23764 13.004 4.76235 13.004 4.43118 12.6731L0.333289 8.57946C-0.323208 7.92363 0.0551646 6.62069 0.902112 6.62069L9.09789 6.62069C9.94484 6.62069 10.3232 7.92363 9.66671 8.57946L5.56882 12.6731Z" fill="#534340"/>
<path d="M9.95179 15.1724C9.95179 15.6295 9.64947 16 9.27655 16H0.723452C0.350525 16 0.0482077 15.6295 0.0482078 15.1724C0.0482078 14.7154 0.350525 14.3448 0.723452 14.3448L9.27655 14.3448C9.64947 14.3448 9.95179 14.7154 9.95179 15.1724Z" fill="#534340"/>
</svg>
