<svg width="20" height="20" viewBox="0 0 20 20" fill="none" xmlns="http://www.w3.org/2000/svg">
<path fill-rule="evenodd" clip-rule="evenodd" d="M10 20C15.5228 20 20 15.5228 20 10C20 4.47715 15.5228 0 10 0C4.47715 0 0 4.47715 0 10C0 15.5228 4.47715 20 10 20ZM16.4399 7.32774C16.9417 6.826 16.9417 6.0125 16.44 5.51075C15.9382 5.009 15.1247 5.00899 14.623 5.51074L8.14821 11.9854L4.75341 8.59743C4.25116 8.09618 3.43766 8.097 2.93642 8.59926C2.43518 9.10151 2.436 9.91501 2.93825 10.4162L6.63588 14.1064C7.47237 14.9412 8.82701 14.9406 9.66267 14.1049L16.4399 7.32774Z" fill="#94765D"/>
</svg>
