<svg width="242" height="573" viewBox="0 0 242 573" fill="none" xmlns="http://www.w3.org/2000/svg">
<path d="M143.077 311.277C142.101 318.188 141.564 325.192 140.06 331.985C136.784 346.765 133.011 361.432 129.45 376.15C127.565 383.938 125.986 391.747 126.711 399.859C127.093 404.153 127.965 408.268 129.772 412.184C133.283 419.794 134.677 427.759 133.423 436.071C132.229 443.971 130.875 451.847 129.519 459.722C128.421 466.08 127.218 472.417 126.052 478.764C125.977 479.166 125.833 479.553 125.721 479.949C125.683 480.177 125.642 480.408 125.605 480.636C124.423 485.993 123.104 491.325 122.091 496.714C120.784 503.674 119.728 510.679 118.562 517.665C118.546 517.896 118.534 518.13 118.518 518.361C119.356 521.74 120.118 525.141 121.056 528.492C121.882 531.45 122.995 534.326 123.814 537.287C125.158 542.142 127.334 546.529 130.372 550.566C131.491 552.055 131.988 554.011 132.77 555.752C132.764 555.977 132.757 556.201 132.751 556.426C132.045 557.527 131.56 558.91 130.591 559.68C127.646 562.02 124.02 562.548 120.4 562.669C117.493 562.766 114.651 562.813 111.9 563.998C110.512 564.594 108.943 564.766 107.42 565.14C106.313 569.811 103.119 573.627 96.6319 572.919C92.7179 572.491 88.7196 572.888 84.7682 572.71C82.6049 572.613 80.4104 572.273 78.3221 571.714C76.2307 571.153 75.1178 568.947 75.6587 566.557C76.0588 564.788 76.7184 563.044 77.4968 561.399C80.2134 555.674 82.88 549.949 84.0992 543.659C84.7557 540.27 84.5869 536.953 83.9335 533.609C83.6365 532.102 83.2489 530.579 83.2083 529.056C82.9957 521.191 79.2099 514.411 76.7122 507.238C70.4724 489.31 64.2576 471.372 58.0804 453.422C57.4302 451.531 57.0863 449.535 56.5986 447.584C57.1019 447.588 57.6021 447.594 58.1054 447.597C58.59 449.46 58.9526 451.366 59.581 453.182C65.8582 471.356 72.1668 489.525 78.5003 507.681C80.8887 514.523 84.4837 520.997 84.6432 528.498C84.6619 529.322 84.8182 530.149 84.987 530.96C86.0405 535.989 86.7939 541.072 85.0621 546.055C83.2802 551.184 81.1638 556.198 79.1974 561.262C78.5128 563.022 77.6625 564.738 77.203 566.554C76.6184 568.85 77.4562 570.264 79.7445 570.538C83.1801 570.947 86.6595 571.012 90.1201 571.175C92.0677 571.265 94.0247 571.162 95.9629 571.315C99.0515 571.562 101.915 571.658 104.144 568.778C106.023 566.354 106.004 563.939 105.201 561.256C104.319 558.307 103.403 555.365 102.681 552.376C101.083 545.78 99.9206 539.159 101.687 532.364C102.246 530.208 101.903 528.021 100.977 525.94C100.233 524.267 99.4516 522.585 98.9515 520.832C94.2154 504.183 92.2115 487.182 92.621 469.899C92.8399 460.577 94.5186 451.269 92.8899 441.928C92.7305 441.438 92.571 440.951 92.4147 440.461C92.1646 439.082 92.0083 437.678 91.6519 436.324C89.9169 429.744 88.0975 423.185 86.375 416.602C85.8092 414.433 85.5091 412.284 86.078 409.965C88.0569 401.912 88.1319 393.794 86.5876 385.635C85.5185 379.994 84.1774 374.349 83.7678 368.649C82.7049 353.757 82.0047 338.833 81.3263 323.916C80.9824 316.4 80.9981 308.865 80.8512 301.339C80.8418 300.865 80.8324 300.388 80.8199 299.913C80.6448 292.054 80.5042 284.194 80.2759 276.335C80.1884 273.305 79.4288 270.559 77.6938 267.876C74.5239 262.974 71.851 257.755 68.9687 252.666C69.5439 252.638 70.1223 252.609 70.6975 252.581C73.2984 257.224 75.865 261.885 78.5159 266.494C79.2162 267.714 80.0602 268.903 81.0544 269.889C82.9832 271.811 87.0596 272.144 88.7384 270.494C94.6468 264.687 100.483 258.809 106.348 252.959C106.801 252.853 107.258 252.75 107.711 252.644C107.476 253.268 107.411 254.06 106.982 254.491C101.512 260.001 95.9691 265.436 90.5109 270.956C89.87 271.605 89.3355 272.6 89.2229 273.492C87.7193 285.589 87.466 297.72 88.5164 309.863C89.3417 319.423 90.3296 328.971 91.1049 338.537C92.2959 353.286 91.5675 368.038 90.9392 382.783C90.6016 390.658 90.7641 398.471 93.7496 405.891C96.0129 411.516 96.7632 417.226 96.3192 423.26C95.6159 432.82 96.1286 442.343 98.5513 451.669C102.178 465.628 102.184 479.94 102.865 494.189C102.875 494.423 102.884 494.654 102.894 494.888C102.959 496.189 103.065 497.487 103.081 498.788C103.147 503.525 103.278 508.264 103.19 513C103.134 516.127 102.75 519.25 102.5 522.373C102.428 523.259 101.968 524.301 102.284 525.003C103.753 528.289 103.384 531.565 102.818 534.947C102.44 537.206 102.174 539.562 102.375 541.827C103.034 549.225 105.11 556.323 107.417 563.471C108.361 563.318 109.365 563.346 110.199 562.984C113.757 561.434 117.48 561.212 121.297 561.069C123.604 560.981 125.955 560.27 128.153 559.474C131.466 558.276 132.138 555.846 130.235 552.857C129.694 552.008 129.097 551.194 128.478 550.398C126.049 547.275 124.292 543.815 123.107 540.045C121.563 535.131 119.909 530.251 118.468 525.309C117.811 523.053 117.092 520.663 117.202 518.37C117.411 513.946 117.818 509.465 118.79 505.157C123.529 484.183 127.543 463.073 131.188 441.884C132.957 431.61 132.817 421.597 128.121 412.006C127.396 410.527 126.568 409.004 126.296 407.416C125.702 403.978 125.258 400.496 125.077 397.014C124.726 390.262 126.043 383.679 127.674 377.17C130.35 366.49 133.161 355.844 135.843 345.164C140.645 326.029 142.72 306.597 142.32 286.865C142.048 273.545 142.155 260.219 142.089 246.9C142.123 246.862 142.189 246.822 142.186 246.79C142.176 246.7 142.136 246.613 142.108 246.522C142.098 246.41 142.089 246.301 142.073 246.188C142.402 245.839 142.73 245.489 143.058 245.14C142.73 244.89 142.402 244.644 142.073 244.394C141.439 232.791 139.935 221.324 136.293 210.242C133.014 200.264 131.732 190.101 132.867 179.649C133.398 179.465 133.93 179.281 134.458 179.097C134.692 179.222 134.98 179.499 135.158 179.443C136.343 179.066 137.487 178.563 138.681 178.223C139.022 178.126 139.479 178.438 139.882 178.56C139.647 178.906 139.488 179.434 139.163 179.571C137.856 180.126 136.474 180.498 135.177 181.072C134.758 181.256 134.283 181.833 134.242 182.27C133.498 190.145 134.283 197.883 136.484 205.477C136.64 206.014 136.921 206.629 137.34 206.959C141.37 210.129 147.632 212.441 153.274 207.668C157.029 204.491 160.802 201.328 164.431 198.011C165.719 196.835 166.613 195.231 167.676 193.814C168.126 193.215 168.417 192.363 169.008 192.017C178.155 186.66 187.186 181.075 196.556 176.13C209.466 169.309 221.264 160.932 232.619 151.858C235.457 149.59 237.805 146.86 239.409 143.515C240.587 141.06 240.975 138.77 239.24 136.417C238.611 135.565 238.164 134.579 237.602 133.674C227.829 117.909 214.746 105.325 199.835 94.4984C199.797 94.0772 199.76 93.656 199.725 93.2379C199.81 93.1162 199.894 92.9977 199.979 92.876C204.177 96.1552 208.422 99.3783 212.564 102.726C223.337 111.428 231.943 122.021 239.346 133.64C239.759 134.289 240.043 135.032 240.509 135.634C242.725 138.486 242.206 141.3 240.715 144.292C238.589 148.557 235.273 151.721 231.656 154.641C218.32 165.412 203.736 174.211 188.587 182.17C182.457 185.39 176.617 189.165 170.671 192.729C170.108 193.065 169.671 193.661 169.264 194.204C168.264 195.527 167.514 197.106 166.31 198.189C161.905 202.148 157.488 206.12 152.818 209.749C148.648 212.987 144.033 212.276 139.529 210.167C138.997 209.917 138.485 209.63 137.631 209.184C137.984 210.507 138.231 211.552 138.544 212.579C142.502 225.577 143.708 238.959 143.783 252.441C143.877 269.573 143.646 286.709 143.521 303.841C143.505 306.088 143.267 308.334 143.13 310.581C143.108 310.821 143.092 311.049 143.077 311.277ZM89.0322 392.412C89.0885 393.501 89.1448 394.586 89.201 395.675C88.6477 400.605 88.0631 405.535 87.5567 410.471C87.416 411.856 87.241 413.329 87.5442 414.655C88.679 419.61 89.7825 424.592 91.3049 429.438C94.2279 438.751 95.7816 448.162 94.8437 457.959C94.3342 463.26 94.0934 468.601 94.0247 473.931C93.8652 486.183 95.5158 498.274 97.801 510.277C98.5357 514.136 99.6423 517.927 100.577 521.746C100.74 521.718 100.902 521.69 101.065 521.662C101.196 520.863 101.43 520.061 101.437 519.262C101.462 515.481 101.484 511.696 101.402 507.915C101.196 498.324 100.987 488.732 100.674 479.141C100.399 470.723 99.511 462.38 97.5697 454.149C96.5131 449.666 95.4502 445.107 95.1626 440.533C94.7218 433.513 94.8593 426.452 94.9375 419.41C94.9719 416.349 94.6218 413.438 93.7371 410.502C92.2553 405.585 91.0048 400.599 89.6575 395.644C89.5512 394.571 89.448 393.501 89.3417 392.427C89.3417 391.476 89.3417 390.524 89.3417 389.572C89.1323 389.585 88.9228 389.594 88.7134 389.604C88.8197 390.537 88.9259 391.473 89.0322 392.412ZM81.5076 272.435C81.6514 274.893 81.8859 277.48 81.939 280.069C82.2798 296.306 82.5268 312.547 82.9113 328.784C83.3802 348.459 84.143 368.116 88.3789 387.441C88.4789 387.903 88.654 388.349 88.7915 388.805C89.2417 388.274 89.3042 387.794 89.323 387.313C89.5168 382.34 89.845 377.363 89.8638 372.39C89.8982 361.607 90.0983 350.808 89.6168 340.044C89.176 330.231 87.7849 320.462 87.069 310.656C86.4032 301.498 85.8717 292.316 86.8064 283.13C87.1503 279.739 87.4067 276.338 87.688 273.115C85.5091 272.875 83.5396 272.659 81.5076 272.435Z" fill="#141414"/>
<path d="M24.4247 303.102C23.9339 298.063 23.4462 293.024 22.9398 287.807C20.7671 293.461 17.616 298.684 18.6976 305.015C18.8883 306.132 18.6319 307.392 18.3131 308.512C17.7347 310.547 15.5715 311.083 14.4085 309.333C13.3019 307.667 12.6048 305.645 12.1046 303.682C11.6482 301.891 11.6951 299.969 11.52 298.107C11.3262 298.072 11.1355 298.041 10.9417 298.007C10.3008 300.768 9.61619 303.52 9.05661 306.297C8.9722 306.712 9.43175 307.261 9.69121 307.72C11.3731 310.712 13.1081 313.676 14.7399 316.696C15.2088 317.567 15.534 318.565 15.6778 319.542C15.7653 320.132 15.5465 321.124 15.1494 321.333C14.7055 321.564 13.6958 321.32 13.2988 320.921C12.0546 319.673 10.9823 318.256 9.84439 316.905C9.5818 317.061 9.31921 317.217 9.05661 317.373C9.02847 317.901 8.98783 318.428 8.97846 318.955C8.9597 319.96 9.07849 320.98 8.92844 321.963C8.70336 323.467 7.60296 323.885 6.55258 322.837C5.65538 321.944 4.82695 320.915 4.22361 319.807C-1.76918 308.802 -0.403061 297.289 2.37919 285.873C4.56749 276.903 6.52757 267.985 5.73041 258.678C5.68664 258.17 5.75229 257.589 5.96174 257.127C11.5794 244.613 14.4148 231.268 17.6003 218.039C19.0258 212.114 20.1981 206.12 21.2173 200.114C22.3458 193.452 24.0714 186.972 27.4383 181.131C34.4689 168.932 37.4137 155.643 38.6798 141.833C39.6708 131.025 40.7274 120.217 40.0991 109.35C39.799 104.149 39.2738 98.9477 38.6173 93.7777C37.1105 81.9556 40.7931 72.1897 49.4368 63.9683C53.4133 60.1867 57.6523 57.8872 63.1762 57.5846C68.5531 57.2913 73.6425 55.6095 78.4786 53.2383C79.5915 52.6922 80.67 52.0526 81.686 51.3412C85.1654 48.9044 87.4975 45.9996 86.7878 41.2727C86.247 37.6565 86.3877 33.9404 86.1282 30.2743C86.0782 29.5817 85.7406 28.7517 85.2529 28.2743C79.9823 23.1293 78.0659 16.5677 77.25 9.54438C77.2 9.10444 77.6095 8.60835 77.8065 8.13721C78.1066 8.56779 78.5693 8.96092 78.6787 9.43517C79.0225 10.9359 79.2382 12.4648 79.4915 13.9843C80.398 19.4445 82.9365 24.0716 86.966 27.8001C90.658 31.2166 94.3937 34.6237 98.4077 37.6378C102.547 40.7454 106.476 40.5956 110.481 37.3257C116.867 32.1121 122.616 26.2057 125.714 18.4273C127.018 15.1543 127.215 11.4164 127.706 7.85952C128.018 5.58185 127.912 3.2449 128.081 0.942263C128.106 0.611532 128.609 0.315123 128.894 0.00311279C129.119 0.365044 129.55 0.739456 129.531 1.09203C129.322 5.2324 129.234 9.39149 128.737 13.5007C128.143 18.4398 125.78 22.68 122.845 26.6456C122.235 27.4693 121.791 28.6269 121.776 29.6378C121.697 34.6113 121.735 39.5878 121.879 44.5581C121.901 45.335 122.488 46.3616 123.135 46.8171C128.415 50.5362 134.274 52.4894 140.801 52.3896C144.049 52.3397 147.338 52.2305 150.542 52.6423C156.31 53.3849 161.099 56.296 165.426 60.09C170.437 64.4862 175.101 69.2007 179.112 74.5236C183.345 80.1398 188.728 84.4798 194.374 88.5547C196.29 89.9369 198.119 91.4439 199.985 92.8916C199.901 93.0133 199.816 93.1318 199.732 93.2535C199.257 93.2535 198.778 93.2535 198.303 93.2535C197.153 92.4205 196.021 91.5593 194.849 90.7543C187.615 85.784 181.169 80.015 175.854 72.9635C173.654 70.0462 170.956 67.494 168.399 64.8606C166.954 63.3755 165.351 62.0463 163.788 60.6797C157.82 55.4504 150.914 53.1696 142.961 53.8155C135.149 54.452 128.037 52.3553 121.754 47.6658C121.072 47.1572 120.469 46.087 120.428 45.2477C120.206 40.6955 120.175 36.1307 120.069 31.5723C120.059 31.2072 119.981 30.8422 119.959 30.655C116.886 33.4631 113.982 36.4459 110.74 38.995C106.958 41.9716 102.722 42.0184 98.5984 39.5597C96.7258 38.4427 94.9908 37.073 93.2808 35.7064C91.452 34.2493 89.7264 32.6643 87.6976 30.9139C87.7476 31.8344 87.7913 32.4022 87.8038 32.9701C87.9133 38.4771 88.0414 43.9872 88.0821 49.4973C88.0852 50.1213 87.5788 50.7484 87.3099 51.3724C87.063 50.7266 86.816 50.0776 86.5628 49.4317C86.5284 49.3444 86.444 49.2757 86.4096 49.2352C85.2092 50.2866 84.1056 51.4567 82.8114 52.3553C77.175 56.2554 70.8196 58.4707 64.0703 58.9605C58.265 59.3817 53.8416 61.6781 49.7745 65.7405C42.1998 73.3005 38.8049 82.1273 40.0366 92.7668C40.643 98.0054 41.2651 103.25 41.559 108.511C42.3061 121.821 40.8837 135.025 39.427 148.23C38.139 159.927 34.7815 170.91 29.0607 181.212C26.1722 186.417 24.2902 192.017 23.143 197.883C21.5518 206.014 19.9387 214.145 18.1005 222.22C15.3933 234.11 12.536 245.967 7.54982 257.18C7.27784 257.792 7.24971 258.566 7.28722 259.252C7.63109 265.143 7.30598 270.984 6.06803 276.756C4.84259 282.481 3.25451 288.144 2.35419 293.92C1.01308 302.512 0.966184 311.077 5.48657 318.993C5.97425 319.845 6.6026 320.618 7.1653 321.43C7.48104 319.611 7.44353 318.013 7.28097 316.428C6.58071 309.639 7.44978 303.068 10.0476 296.759C10.7916 294.955 11.4387 293.274 10.429 291.358C10.257 291.034 10.579 290.447 10.6759 289.982C11.0636 290.307 11.7232 290.584 11.792 290.965C12.3359 294.101 12.7392 297.258 13.2519 300.4C13.602 302.55 13.9459 304.715 14.5211 306.809C14.743 307.62 15.5965 308.26 16.1623 308.977C16.4124 308.893 16.6625 308.809 16.9157 308.724C17.0001 307.233 17.2502 305.729 17.1408 304.253C16.8688 300.634 17.1408 297.071 18.8508 293.867C22.2051 287.583 22.4708 280.968 21.4705 274.151C20.6452 268.525 20.764 262.912 21.9456 257.355C23.0898 251.973 24.4591 246.641 25.5876 241.255C28.0604 229.43 31.3115 217.867 37.8358 207.561C41.7622 201.359 46.17 195.465 50.2965 189.39C51.0093 188.339 51.572 187.119 51.919 185.896C54.248 177.705 56.4613 169.481 58.809 161.294C59.2591 159.721 59.7968 158.273 59.6843 156.545C59.3029 150.632 59.081 144.71 58.909 138.788C58.8746 137.606 58.5683 137.035 57.4585 136.557C53.5633 134.888 50.9718 131.958 50.0965 127.802C49.6244 125.572 49.6494 123.235 49.4525 120.944C49.937 121.075 50.4247 121.203 50.9093 121.334C50.9218 122.342 50.8842 123.353 50.953 124.358C51.3563 130.336 54.3136 134.133 60.0344 135.983C63.6013 137.135 67.2714 137.206 70.9477 136.757C75.4119 136.214 79.5509 134.617 83.5992 132.729C84.0025 132.542 84.5996 132.757 85.106 132.788C84.8653 133.191 84.7246 133.799 84.3714 133.968C78.7631 136.648 72.9829 138.726 66.6306 138.445C64.5892 138.355 62.5572 138.105 60.5221 137.927C60.5221 140.851 60.4283 143.752 60.5409 146.645C60.8503 154.804 62.0508 162.957 60.5534 171.116C58.8465 171.268 59.4842 172.055 60.0938 172.829C59.3623 175.041 58.7746 177.312 57.868 179.453C55.192 185.78 51.0781 191.237 46.9078 196.607C35.9069 210.772 29.3983 226.8 26.5911 244.419C25.5407 244.847 25.1656 245.393 26.2816 246.198C25.572 253.193 24.5247 260.169 24.2308 267.183C23.7244 279.193 24.5653 291.177 25.9346 303.118C25.425 303.105 24.9248 303.102 24.4247 303.102ZM54.2761 181.665C54.4418 181.702 54.6106 181.743 54.7763 181.78C57.5023 178.766 60.0907 169.328 59.3217 163.877C57.6398 169.808 55.958 175.736 54.2761 181.665ZM13.6958 319.258C13.0143 315.573 10.7447 312.587 8.70961 309.464C8.53142 310.066 8.59707 310.609 8.52204 311.127C8.19692 313.367 8.85654 315.124 10.751 316.49C11.8326 317.27 12.7204 318.328 13.6958 319.258Z" fill="#141414"/>
<path d="M56.2269 446.14C54.6388 439.269 54.4043 432.296 54.6482 425.291C54.8295 420.081 55.1296 414.87 55.2109 409.66C55.4078 396.764 51.6315 384.842 46.4171 373.204C37.7858 353.938 30.7364 334.113 26.1816 313.464C25.5314 310.518 25.1 307.523 24.5654 304.55C25.1188 304.668 25.6721 304.787 26.2254 304.905C26.8131 308.163 27.2727 311.451 28.0042 314.678C32.6402 335.058 39.574 354.68 48.2928 373.641C55.2015 388.664 57.8118 404.252 56.4082 420.67C55.6923 429.067 55.8361 437.485 57.618 445.79C57.1585 445.906 56.6927 446.024 56.2269 446.14Z" fill="#161616"/>
<path d="M26.2284 304.905C25.6751 304.787 25.1217 304.668 24.5684 304.55C24.5215 304.069 24.4746 303.586 24.4277 303.102C24.9279 303.102 25.4281 303.105 25.9252 303.105C28.351 303.264 30.7738 303.448 33.2028 303.579C44.5569 304.191 55.8641 303.601 67.1182 302.038C71.6948 301.402 76.2496 300.625 80.8169 299.91C80.8263 300.384 80.8356 300.862 80.8481 301.336C68.4812 303.582 56.0736 305.439 43.4565 305.283C37.7075 305.214 31.968 305.033 26.2284 304.905Z" fill="#806A5F"/>
<path d="M56.2266 446.14C56.6924 446.021 57.1582 445.906 57.6208 445.787C57.9647 445.865 58.3054 446.006 58.6493 446.009C66.2458 446.056 73.8173 445.765 81.2043 443.772C84.962 442.758 88.6727 441.569 92.4053 440.458C92.5647 440.948 92.7241 441.435 92.8804 441.925C89.895 442.848 86.922 443.809 83.921 444.686C75.4835 447.157 66.821 447.666 58.0929 447.588C57.5896 447.584 57.0894 447.578 56.5861 447.575C56.4704 447.098 56.3485 446.62 56.2266 446.14Z" fill="#80695E"/>
<path d="M143.077 311.277C143.093 311.049 143.108 310.821 143.124 310.593C143.108 310.821 143.093 311.049 143.077 311.277Z" fill="#151515"/>
<path d="M125.602 480.636C125.64 480.408 125.68 480.177 125.718 479.949C125.68 480.177 125.643 480.408 125.602 480.636Z" fill="#151515"/>
<path d="M118.515 518.361C118.531 518.13 118.543 517.896 118.559 517.665C118.543 517.899 118.531 518.13 118.515 518.361Z" fill="#151515"/>
<path d="M132.748 556.426C132.754 556.201 132.761 555.977 132.767 555.752C132.761 555.977 132.754 556.201 132.748 556.426Z" fill="#151515"/>
<path d="M106.342 252.962C105.163 252.962 103.988 252.978 102.809 252.962C92.9872 252.85 83.168 252.734 73.3488 252.616C72.4641 252.606 71.5794 252.591 70.6948 252.578C70.1195 252.606 69.5412 252.634 68.966 252.662C67.8375 252.413 66.7214 252.088 65.5804 251.923C53.7074 250.176 41.8281 248.453 29.9519 246.725C28.7264 246.547 27.501 246.369 26.2756 246.188C25.1564 245.383 25.5347 244.84 26.585 244.41C31.8901 245.365 37.1732 246.441 42.5002 247.243C50.1186 248.391 57.7682 249.355 65.4085 250.354C66.0274 250.435 66.6902 250.176 67.3342 250.076C68.0407 250.316 68.744 250.553 69.4506 250.794C79.8231 251.043 90.1956 251.33 100.571 251.521C103.053 251.567 105.545 251.287 108.03 251.159C108.812 250.921 109.593 250.687 110.375 250.45C112.329 250.335 114.329 250.45 116.23 250.063C124.646 248.347 133.03 246.491 141.423 244.675C141.652 244.625 141.858 244.491 142.077 244.397C142.405 244.647 142.733 244.893 143.062 245.143C142.733 245.492 142.405 245.842 142.077 246.191C135.046 247.767 128.031 249.421 120.975 250.884C117.799 251.542 114.539 251.789 111.325 252.272C110.3 252.428 109.296 252.744 108.283 252.987C108.074 252.868 107.864 252.753 107.652 252.634L107.711 252.65C107.249 252.753 106.795 252.859 106.342 252.962Z" fill="#826A5E"/>
<path d="M134.568 178.214C134.53 178.51 134.493 178.804 134.455 179.1C133.924 179.284 133.392 179.468 132.864 179.652C129.025 179.902 125.183 180.148 121.344 180.398C103.663 181.546 86.3503 179.19 69.2285 174.963C66.1868 174.211 63.1294 173.531 60.0814 172.816C59.475 172.042 58.8341 171.256 60.541 171.103C74.7992 175.009 89.2076 178.148 104.019 178.885C113.741 179.368 123.461 179.087 133.136 177.861C133.611 177.983 134.089 178.098 134.568 178.214Z" fill="#836B60"/>
<path d="M199.829 94.5109C198.597 96.305 197.419 98.1396 196.118 99.8837C191.845 105.618 187.524 111.319 183.226 117.035C182.773 117.637 182.341 118.255 181.9 118.866C181.582 119.272 181.263 119.678 180.947 120.083C180.572 119.846 180.2 119.612 179.825 119.375C179.928 118.86 180.031 118.342 180.134 117.824C180.616 117.412 181.188 117.072 181.566 116.582C185.605 111.366 189.691 106.183 193.592 100.867C195.352 98.4703 196.734 95.7933 198.285 93.2441C198.76 93.2441 199.238 93.2441 199.713 93.2441C199.757 93.6685 199.794 94.0897 199.829 94.5109Z" fill="#7F6A5F"/>
<path d="M89.6574 395.641C89.5043 395.654 89.3542 395.663 89.201 395.675C89.1448 394.586 89.0885 393.501 89.0322 392.412L89.1854 392.424H89.3417C89.448 393.494 89.5512 394.568 89.6574 395.641Z" fill="#C3C3C3"/>
<path d="M102.856 494.193C102.865 494.427 102.875 494.657 102.884 494.891C102.875 494.657 102.865 494.427 102.856 494.193Z" fill="#151515"/>
<path d="M142.083 246.9C142.089 246.775 142.096 246.65 142.102 246.525C142.13 246.613 142.171 246.7 142.18 246.794C142.183 246.825 142.117 246.865 142.083 246.9Z" fill="#826A5E"/>
<path d="M146.534 121.281C130.219 126.866 113.332 127.855 96.285 127.447C81.4577 127.091 66.8869 124.795 52.4629 121.447C51.9596 121.331 51.4219 121.362 50.8998 121.325C50.4153 121.194 49.9276 121.066 49.443 120.935C48.8084 120.317 48.3301 119.706 49.5243 119.172C50.0308 119.284 50.5372 119.394 51.0436 119.506C72.4889 124.785 94.2186 127.094 116.289 125.531C126.665 124.795 136.884 123.141 146.7 119.512C147.197 119.26 147.691 119.007 148.188 118.757C150.87 117.703 153.556 116.648 156.238 115.593C156.76 115.45 157.282 115.306 157.804 115.163C157.601 115.79 157.398 116.417 157.194 117.044C156.557 117.281 155.919 117.519 155.281 117.759C152.884 118.832 150.486 119.905 148.088 120.979C147.566 121.079 147.05 121.178 146.534 121.281Z" fill="#81695E"/>
<path d="M54.2759 181.665C55.9577 175.736 57.6396 169.808 59.3246 163.877C60.0905 169.328 57.5052 178.763 54.7792 181.78C54.6104 181.743 54.4447 181.705 54.2759 181.665Z" fill="#E6E6E6"/>
<path d="M13.6955 319.258C12.7202 318.325 11.8355 317.27 10.7507 316.487C8.85629 315.124 8.19668 313.367 8.5218 311.124C8.59682 310.603 8.5343 310.063 8.70937 309.461C10.7445 312.59 13.014 315.573 13.6955 319.258Z" fill="#E6E6E6"/>
<path d="M110.18 413.831C108.123 412.898 106.051 412 104.028 410.995C103.719 410.842 103.656 410.196 103.478 409.778C103.947 409.788 104.457 409.681 104.875 409.828C106.632 410.443 108.314 411.413 110.118 411.725C112.675 412.171 114.804 410.88 116.667 409.192C117.105 408.795 117.505 408.33 118.002 408.034C118.283 407.869 118.734 407.987 119.109 407.981C119.087 408.346 119.202 408.808 119.021 409.067C117.38 411.416 113.407 413.36 110.402 413.344C110.324 413.51 110.252 413.669 110.18 413.831Z" fill="#1A1A1A"/>
<path d="M107.646 252.631C107.855 252.75 108.064 252.865 108.277 252.984C108.064 252.865 107.855 252.75 107.646 252.631Z" fill="#151515"/>
<path d="M69.444 250.797C68.7375 250.556 68.0341 250.319 67.3276 250.079C64.3047 245.764 61.2629 241.458 58.2775 237.118C57.9743 236.678 57.9993 236.017 57.8711 235.458C58.3744 235.695 59.0778 235.795 59.356 236.191C62.7541 241.034 66.0897 245.92 69.444 250.797Z" fill="#141414"/>
<path d="M110.368 250.453C109.587 250.691 108.805 250.925 108.023 251.162C111.153 247.461 114.263 243.748 117.436 240.085C117.705 239.773 118.38 239.814 118.868 239.689C118.709 240.195 118.687 240.812 118.371 241.184C115.732 244.297 113.041 247.368 110.368 250.453Z" fill="#181717"/>
<path d="M70.7727 413.981C69.1752 413.563 67.6309 413.213 66.1335 412.727C65.7771 412.611 65.5708 412.031 65.2988 411.663C65.7115 411.544 66.2117 411.213 66.5243 411.341C69.6004 412.617 72.6202 412.399 75.662 411.232C75.9839 411.107 76.4622 411.391 76.8718 411.485C76.6185 411.872 76.4404 412.505 76.0996 412.608C74.3615 413.138 72.5858 413.528 70.7727 413.981Z" fill="#181817"/>
<path d="M155.275 117.756C155.913 117.519 156.551 117.281 157.188 117.041C152.94 131.434 147.113 145.209 140.998 158.888C138.838 163.721 137.353 168.86 135.559 173.855C135.515 173.98 135.471 174.102 135.427 174.226C135.565 174.217 135.699 174.208 135.837 174.195C139.326 173.156 142.839 173.197 146.394 173.849C149.601 174.435 152.815 175.022 156.05 175.381C157.11 175.499 158.483 175.206 159.317 174.579C170.127 166.476 180.916 158.336 191.61 150.08C197.331 145.662 201.382 139.709 205.847 134.049C205.224 133.646 204.746 133.3 204.237 133.016C196.478 128.701 188.712 124.392 180.947 120.083C181.266 119.678 181.585 119.272 181.9 118.866C187.221 121.718 192.57 124.517 197.853 127.437C200.957 129.153 203.952 131.066 206.881 132.819C210.226 129.859 213.49 126.932 216.813 124.077C217.235 123.715 217.963 123.712 218.551 123.543C218.307 124.074 218.207 124.785 217.798 125.113C211.03 130.511 205.362 136.916 200.057 143.73C195.249 149.905 188.89 154.501 182.719 159.206C175.417 164.776 167.889 170.052 160.615 175.662C158.348 177.409 156.16 177.056 153.778 176.682C150.033 176.095 146.3 175.359 142.533 174.991C140.695 174.813 138.791 175.34 136.915 175.518C135.258 175.677 134.583 176.654 134.561 178.217C134.083 178.102 133.605 177.983 133.126 177.868C134.502 173.125 135.512 168.236 137.328 163.668C141.114 154.161 145.49 144.888 149.298 135.387C151.614 129.634 153.309 123.64 155.275 117.756Z" fill="#151515"/>
<path d="M179.828 119.378C173.566 115.394 167.301 111.406 160.839 107.294C159.814 109.949 158.807 112.558 157.798 115.163C157.276 115.306 156.754 115.45 156.232 115.593C157.279 112.592 158.326 109.59 159.461 106.342C156.954 105.047 154.343 103.696 151.733 102.352C151.261 102.108 150.695 101.971 150.323 101.622C149.967 101.291 149.807 100.751 149.563 100.302C150.036 100.299 150.592 100.133 150.967 100.321C154.031 101.856 157.169 103.281 160.083 105.076C166.829 109.228 173.46 113.568 180.137 117.83C180.034 118.345 179.931 118.86 179.828 119.378Z" fill="#161615"/>
<path d="M51.0408 119.506C50.5343 119.394 50.0279 119.285 49.5215 119.172C50.7032 109.534 55.6081 101.625 61.2257 94.0523C61.4695 93.7246 62.0447 93.6435 62.4668 93.447C62.4293 93.9587 62.5731 94.5827 62.3292 94.9602C60.8506 97.2441 59.2406 99.4469 57.7557 101.728C54.2169 107.157 51.8504 113.041 51.0408 119.506Z" fill="#161616"/>
<path d="M148.185 118.754C147.688 119.007 147.194 119.259 146.697 119.509C146.513 113.668 146.325 107.827 146.147 101.987C146.131 101.516 146.091 101.019 146.225 100.583C146.303 100.327 146.688 100.074 146.975 100.015C147.138 99.9804 147.457 100.308 147.566 100.539C147.685 100.789 147.663 101.113 147.669 101.406C147.845 107.191 148.013 112.973 148.185 118.754Z" fill="#181817"/>
<path d="M146.535 121.281C147.05 121.178 147.566 121.079 148.082 120.976C147.935 122.245 147.876 123.531 147.629 124.782C145.844 133.927 139.77 138.938 131.129 140.816C120.519 143.122 111.406 139.715 103.685 132.295C103.088 131.721 102.481 131.132 102.018 130.454C101.706 129.999 101.643 129.372 101.468 128.823C101.993 129.019 102.606 129.103 103.022 129.434C103.663 129.946 104.144 130.651 104.735 131.231C111.225 137.606 119.012 140.785 128.094 139.837C137.303 138.876 146.066 133.188 146.535 121.281Z" fill="#161516"/>
</svg>
