<svg width="20" height="437" viewBox="0 0 20 437" fill="none" xmlns="http://www.w3.org/2000/svg">
<path d="M19.25 213.831C19.6642 213.831 20 214.167 20 214.581C20 214.995 19.6642 215.331 19.25 215.331L19.25 213.831ZM2.25 215.331L1.5 215.331L1.5 213.831L2.25 213.831L2.25 215.331ZM19.25 215.331L2.25 215.331L2.25 213.831L19.25 213.831L19.25 215.331Z" fill="#AEAEAE"/>
<path fill-rule="evenodd" clip-rule="evenodd" d="M20 437C8.95431 437 -7.98932e-07 428.046 -1.78446e-06 417L-3.72061e-05 20C-3.81916e-05 8.95432 8.95426 -7.67013e-07 20 -1.71317e-06L20 1.5C9.78269 1.5 1.49996 9.78275 1.49996 20L1.5 417C1.5 427.217 9.78273 435.5 20 435.5L20 437Z" fill="#AEAEAE"/>
</svg>
