<svg width="278" height="228" viewBox="0 0 278 228" fill="none" xmlns="http://www.w3.org/2000/svg">
<path d="M83.3096 37.8468C81.8943 32.2924 80.5929 27.2514 79.332 22.1993C79.1372 21.422 79.1409 20.6008 79.0306 19.8052C78.6482 17.0775 79.5452 15.5047 82.5266 14.9878C86.2984 14.3389 90.0297 13.3673 93.7132 12.3114C95.9888 11.6588 97.4078 12.3737 98.4702 14.2875C99.5878 16.2966 100.702 18.3021 102.073 20.7658C106.356 14.5038 111.734 11.3509 119.116 14.3279C120.174 11.3252 120.95 8.53152 122.134 5.91749C123.567 2.74619 125.288 2.13393 128.733 2.63987C129.655 2.77552 130.898 2.48955 131.618 1.92495C136.228 -1.68263 141.459 0.326467 146.132 3.56743C148.187 4.9936 150.503 6.1008 152.363 7.72861C153.951 9.11812 155.988 10.9329 156.23 12.766C157.462 22.0856 163.936 28.5382 168.273 36.1677C170.512 40.1015 173.339 41.579 177.846 40.9191C184.033 40.0172 190.283 39.5479 196.514 38.9687C203.326 38.3381 209.708 39.4673 215.707 43.0492C219.413 45.2599 223.412 47.1151 227.486 48.5339C229.765 49.3258 232.467 48.9482 234.981 49.0178C237.261 49.0802 239.54 49.0325 242.143 49.0325C241.396 47.0381 240.742 45.3736 240.154 43.6871C239.147 40.8018 239.389 38.0374 241.573 35.7937C249.296 27.86 258.274 21.8766 268.975 18.6723C269.541 18.5037 270.203 18.6504 270.942 19.2223C270.376 19.5083 269.839 19.8932 269.24 20.0655C259.796 22.7822 251.91 28.1533 244.694 34.5765C240.106 38.6607 240.132 40.6845 243.062 46.8841C243.429 47.6613 244.642 48.0426 245.738 48.7942C243.705 50.1581 241.712 51.6099 239.61 52.8857C235.158 55.5951 234.169 55.3934 229.949 52.3028C227.688 50.6493 225.166 49.3258 222.692 47.9876C221.012 47.0784 219.045 46.6348 217.475 45.5862C209.3 40.1199 200.363 39.6799 190.989 41.0144C185.235 41.832 179.409 42.1326 172.983 42.7266C175.269 45.5679 177.174 48.2369 179.383 50.62C185.688 57.4209 192.073 64.1558 198.562 70.7843C199.407 71.6496 201.08 72.2105 202.308 72.1225C208.939 71.6349 215.557 70.9566 222.166 70.2234C225.839 69.8164 229.482 69.1749 233.14 68.6396C233.221 68.9732 233.298 69.3032 233.379 69.6368C232.665 69.8641 231.971 70.2124 231.243 70.3041C221.052 71.5909 210.858 72.8558 200.657 74.0583C200.08 74.128 199.245 73.7687 198.848 73.325C187.82 61.0431 175.236 50.0994 166.424 35.9C164.3 32.4758 161.756 29.3008 159.793 25.7959C158.197 22.9509 156.642 19.8895 156.043 16.7402C155.245 12.5534 152.554 9.45175 149.61 7.66995C145.426 5.13291 140.246 4.22368 135.475 2.6692C135.096 2.54454 134.585 2.81585 134.085 3.39878C136.78 3.91572 139.478 4.43633 142.173 4.95327C142.242 5.30523 142.312 5.66085 142.386 6.01281C135.269 5.29423 127.431 3.5271 128.361 14.5625C132.166 15.3801 135.831 15.93 139.349 16.9822C145.136 18.7163 148.499 22.9105 150.315 28.5492C150.856 30.2283 151.79 31.7938 152.62 33.3703C157.212 42.0996 161.609 50.939 166.491 59.4996C171.725 68.6762 177.398 77.6109 182.945 86.6078C184.838 89.6802 187.868 90.78 191.364 91.253C200.161 92.4408 208.969 93.6324 217.703 95.1942C228.07 97.0456 238.073 95.7295 247.756 92.0925C256.833 88.6829 259.02 82.1094 254.631 73.4607C253.98 72.1775 251.579 70.7037 253.844 69.1309C255.943 67.6717 257.432 64.9807 261.134 66.3445C264.501 67.5837 268.35 67.5141 272.228 68.0567C271.673 68.3316 271.133 68.8486 270.622 68.8156C267.424 68.6249 264.236 68.2656 261.038 68.0676C259.81 67.9907 258.446 67.8953 257.351 68.3316C255.178 69.1969 254.531 70.4947 255.862 72.9804C260.876 82.3183 257.891 90.0395 247.896 93.6507C243.841 95.1135 239.566 95.9641 234.617 97.2986C241.558 102.065 248.098 106.607 254.689 111.065C261.207 115.472 268.181 119.245 274.056 124.524C273.897 124.777 273.743 125.03 273.585 125.287C273.026 125.034 272.42 124.858 271.92 124.52C259.068 115.798 246.238 107.043 233.368 98.3508C232.592 97.8265 231.496 97.4526 230.581 97.5112C211.608 98.7211 193.216 94.6956 174.718 91.5389C169.156 90.5894 163.539 89.8891 157.918 89.4089C156.436 89.2805 154.466 89.9955 153.363 91.0147C144.882 98.8604 134.978 101.057 123.862 98.8824C122.773 98.6698 121.663 98.5011 120.604 98.1822C109.554 94.8459 98.6834 95.0255 87.5703 98.5158C82.1774 100.21 76.2146 100.085 70.5165 100.822C64.9251 101.544 59.3373 102.307 53.7495 103.073C51.0696 103.44 50.6762 104.891 51.9261 107.069C51.9776 107.157 51.996 107.26 52.0474 107.344C61.3702 122.706 62.6532 139.834 63.1568 157.165C63.2304 159.713 63.8627 162.305 64.631 164.757C65.5206 167.602 65.6493 170.239 64.245 172.933C62.9142 175.492 63.3737 177.208 65.8919 179.272C72.259 184.5 76.3764 191.433 78.5637 199.382C79.343 202.208 78.5894 205.079 76.1595 206.71C72.612 209.093 68.8953 211.462 64.9104 212.903C60.7636 214.398 57.0066 216.195 53.4848 218.853C43.5334 226.361 32.4828 229.789 19.9286 227.117C12.0065 225.43 9.73828 220.279 14.5578 213.702C17.5796 209.577 21.1013 205.768 24.7371 202.153C29.3764 197.537 33.2548 192.511 35.7215 186.407C36.3832 184.764 37.3354 183.034 38.6404 181.912C40.2726 180.511 40.1145 178.964 39.4271 177.611C38.9749 176.72 37.5375 175.903 36.4825 175.822C33.6849 175.606 30.8579 175.767 28.042 175.855C23.013 176.013 17.9803 176.475 12.9623 176.346C7.85608 176.214 3.52554 174.202 1 169.41C-1.09909 165.432 0.169187 161.44 4.31959 159.606C6.22753 158.763 8.35236 158.206 10.4294 157.986C15.6202 157.432 19.8404 155.02 24.2739 152.428C28.5052 149.957 28.5493 147.13 28.5272 142.918C28.4794 132.832 23.7556 124.275 20.4727 115.282C16.1642 103.473 11.1904 91.9092 6.6172 80.1956C5.41509 77.1123 4.45194 73.908 3.69464 70.6853C1.72053 62.264 4.69824 55.0012 12.7086 51.7492C21.1675 48.3139 29.9683 45.2416 38.9124 43.5808C51.9813 41.1538 65.3074 40.1309 78.5269 38.5067C80.0967 38.2868 81.6701 38.0631 83.3096 37.8468ZM48.8344 102.395C50.2277 102.248 51.1063 102.186 51.9702 102.057C57.6389 101.207 63.3112 100.36 68.9725 99.4727C77.4278 98.1492 85.9418 97.097 94.3051 95.3335C99.7422 94.186 105.062 93.669 110.502 94.5709C113.583 95.0805 116.645 95.7808 119.671 96.5544C132.574 99.8576 144.327 98.5195 154.006 88.3713C154.499 87.8544 155.411 87.3521 156.058 87.4291C161.66 88.1037 167.255 88.8259 172.828 89.7058C177.335 90.4171 181.809 91.3593 185.691 92.0852C183.162 88.7746 180.085 85.5373 177.927 81.7757C171.42 70.4287 165.079 58.979 159.094 47.3534C157.197 43.6688 155.002 41.2491 150.885 41.0291C149.709 40.9668 148.058 41.3224 147.363 42.1216C142.978 47.1737 137.508 48.8859 131.28 46.9831C127.501 45.8282 124.06 43.5771 120.454 41.843C119.586 41.4251 118.66 40.7871 117.77 40.8055C113.649 40.8825 109.491 41.4031 106.804 38.7817C104.948 39.9402 103.782 41.0144 102.411 41.4544C99.051 42.5286 95.5513 43.1629 92.1986 44.2554C89.4231 45.161 87.4968 44.6037 86.2396 41.942C85.236 39.8192 83.6258 39.2693 81.2877 39.5773C77.391 40.0942 73.4391 40.1895 69.524 40.5782C51.9261 42.338 34.4569 44.6184 17.7156 50.8546C6.33781 55.0928 2.37857 61.78 5.8305 73.3324C7.63918 79.389 10.1905 85.233 12.5064 91.132C13.3189 93.1961 14.4364 95.1392 15.4143 97.141C16.0062 95.0219 15.9804 93.1228 16.0135 91.2236C16.1091 85.6436 17.7046 80.4632 22.0755 76.9253C26.1708 73.6073 30.5638 70.1574 35.4164 68.3426C58.0028 59.9029 80.7363 51.8409 104.359 46.6385C105.249 46.4441 106.179 46.4185 107.087 46.3122C107.15 46.5505 107.208 46.7888 107.271 47.0271C106.701 47.291 106.157 47.676 105.562 47.8007C84.8683 52.1928 65.0133 59.3567 45.0774 66.2125C39.1955 68.2363 33.3651 70.7073 27.9868 73.798C21.6675 77.4276 17.4178 83.0699 17.5244 90.7287C17.5943 95.9164 18.0354 101.214 19.2486 106.237C20.6602 112.077 22.8512 117.771 25.1451 123.351C31.9424 139.882 37.8133 156.67 40.4454 174.433C40.8939 177.468 40.9637 180.702 45.2722 180.786C45.3016 180.786 45.3237 180.951 45.3531 181.039C45.3053 181.127 45.2833 181.259 45.2097 181.3C44.9524 181.432 44.6657 181.655 44.4083 181.63C40.1807 181.201 38.372 183.8 36.817 187.188C35.2693 190.553 33.5783 193.966 31.3027 196.852C28.1964 200.789 24.3805 204.162 21.0609 207.946C18.6824 210.659 16.2819 213.46 14.4989 216.565C12.1793 220.598 13.7747 223.828 18.2155 225.174C19.2743 225.496 20.3661 225.723 21.4579 225.921C32.6703 227.931 42.7467 225.016 51.6872 218.358C56.1353 215.047 60.7747 212.617 66.1088 211.033C69.2777 210.091 72.3252 208.074 74.8324 205.871C76.2403 204.632 77.413 201.801 77.0197 200.071C75.1522 191.932 70.9467 184.98 64.2119 179.877C62.7304 178.755 62.0282 177.82 61.9952 176.053C61.8628 169.007 61.5614 161.964 61.4731 154.917C61.2673 138.537 59.4255 122.559 50.8196 108.066C49.8527 106.417 49.5182 104.389 48.8344 102.395ZM30.9719 151.423C29.4904 151.885 27.0126 152.039 25.3731 153.289C20.8256 156.761 15.9363 158.976 10.2162 159.427C8.92585 159.529 7.64286 159.922 6.40031 160.321C1.15808 162.011 -0.0771166 166.367 3.49981 170.609C6.16136 173.762 9.80078 175.016 13.7416 174.946C22.0351 174.807 30.3212 174.378 38.9051 174.059C36.8464 162.994 34.8098 151.966 30.4572 141.543C30.1705 141.598 29.8837 141.653 29.597 141.711C30.0565 144.989 30.5234 148.27 30.9719 151.423ZM149.253 32.0321C149.249 24.7546 142.794 17.9061 135.864 17.8291C128.494 17.7448 121.593 25.0736 121.59 32.989C121.586 40.6295 127.608 46.2315 135.817 46.2278C143.294 46.2205 149.257 39.9219 149.253 32.0321ZM82.2288 16.6596C85.0779 25.6492 87.7909 34.2062 90.6216 43.1372C94.2977 42.151 98.5033 41.1721 102.58 39.8082C103.378 39.5406 104.154 37.7955 104.143 36.7396C104.047 28.8718 101.231 21.796 97.2313 15.1601C96.7718 14.3975 95.4043 13.5506 94.6543 13.7009C90.3201 14.5662 86.0521 15.7174 82.2288 16.6596ZM122.534 16.7916C115.803 18.8703 109.348 20.8611 102.918 22.8445C104.363 28.2449 104.367 28.2486 109.249 26.9654C110.708 26.5841 112.208 26.2908 113.598 25.7262C114.767 25.2533 116.024 24.6483 116.851 23.7501C118.796 21.6383 120.505 19.3103 122.534 16.7916ZM121.998 40.8128C117.583 30.8076 121.145 23.0572 130.24 17.1985C125.222 16.0217 119.663 20.7474 117.612 25.6712C115.428 30.9066 117.344 37.5902 121.998 40.8128ZM117.017 38.8624C116.234 34.8771 115.498 31.1119 114.697 27.0277C112.774 27.5263 110.73 27.9773 108.749 28.6152C108.234 28.7802 107.613 29.4988 107.543 30.0304C106.874 34.9358 112.054 39.6396 117.017 38.8624ZM81.7987 19.8382C81.4458 19.9665 81.0929 20.0949 80.7363 20.2232C80.9863 26.9397 84.6367 37.7771 87.4159 40.0649C87.7027 39.9732 87.9857 39.8816 88.2725 39.7899C86.1182 33.1393 83.9566 26.4888 81.7987 19.8382ZM104.962 20.0399C105.176 20.3698 105.389 20.6961 105.602 21.0261C108.624 19.2333 111.646 17.4368 115.278 15.2811C110.642 14.2875 107.047 16.1866 104.962 20.0399ZM122.733 14.6688C123.056 14.5405 123.38 14.4158 123.703 14.2875C124.196 10.6909 122.95 6.58474 126.836 3.98171C123.854 5.05226 121.347 9.2941 121.568 12.6267C121.612 13.3343 122.329 13.9906 122.733 14.6688ZM151.245 33.9459C148.716 38.9907 149.429 40.1015 155.065 39.9219C153.745 37.8578 152.569 36.0137 151.245 33.9459ZM127.563 6.81572C125.097 7.48297 124.556 10.7129 126.325 16.3003C126.795 12.7074 127.177 9.77071 127.563 6.81572ZM231.254 50.7447C233.746 54.0333 236.378 54.0259 239.055 50.7447C236.397 50.7447 233.908 50.7447 231.254 50.7447ZM108.87 38.0704C107.679 35.3061 106.598 32.7911 105.517 30.276C105.33 33.385 105.223 36.45 108.87 38.0704Z" fill="black" fill-opacity="0.7"/>
<path d="M275.53 47.9765C279.085 51.1954 278.728 54.0258 274.931 55.056C272.6 55.6902 269.979 55.6096 267.534 55.3823C265.634 55.2063 264.384 53.8644 264.483 50.7445C266.961 54.792 270.181 54.6527 273.449 54.0478C276.478 53.4868 276.938 52.3943 275.651 49.5163C275.519 49.2193 275.589 48.8307 275.53 47.9765Z" fill="black"/>
</svg>
