<svg width="23" height="23" viewBox="0 0 23 23" fill="none" xmlns="http://www.w3.org/2000/svg">
<path fill-rule="evenodd" clip-rule="evenodd" d="M22.2778 1.17969C21.8444 0.748753 21.1418 0.748752 20.7085 1.17969L11.6847 10.1531L2.66089 1.17959C2.22754 0.748655 1.52494 0.748655 1.09158 1.17959C0.658229 1.61053 0.65823 2.30922 1.09158 2.74016L10.1154 11.7137L1.09208 20.6868C0.658721 21.1177 0.658722 21.8164 1.09207 22.2473C1.52543 22.6783 2.22803 22.6783 2.66139 22.2473L11.6847 13.2743L20.708 22.2473C21.1413 22.6782 21.8439 22.6782 22.2773 22.2473C22.7106 21.8163 22.7106 21.1176 22.2773 20.6867L13.254 11.7137L22.2778 2.74026C22.7111 2.30932 22.7111 1.61063 22.2778 1.17969Z" fill="#353535" fill-opacity="0.3"/>
</svg>
