<svg width="37" height="38" viewBox="0 0 37 38" fill="none" xmlns="http://www.w3.org/2000/svg">
<g clip-path="url(#clip0_128_147)">
<path d="M26.5272 15.5984C26.9818 16.6734 27.2124 17.8181 27.2124 19C27.2124 20.1821 26.9818 21.3266 26.5272 22.4018C26.087 23.4422 25.4562 24.3776 24.6518 25.182C23.8477 25.9861 22.9123 26.6172 21.8716 27.0571C20.7964 27.512 19.6519 27.7426 18.47 27.7426C17.2878 27.7426 16.1434 27.512 15.0681 27.0571C14.0275 26.6172 13.0923 25.9861 12.2879 25.182C11.4838 24.3776 10.8527 23.4422 10.4126 22.4018C9.95789 21.3266 9.72729 20.1821 9.72729 19C9.72729 17.8181 9.95789 16.6734 10.4126 15.5984C10.8527 14.5578 11.4838 13.6223 12.2879 12.8182C13.0923 12.0139 14.0275 11.3831 15.0681 10.9429C16.1434 10.4879 17.2878 10.2576 18.47 10.2576C19.6519 10.2576 20.7964 10.4879 21.8716 10.9429C22.9123 11.3831 23.8477 12.0139 24.6518 12.8182C25.4562 13.6223 26.087 14.5578 26.5272 15.5984Z" fill="white"/>
<path d="M26.657 0.680847H10.2826C4.68678 0.680847 0.150635 5.21724 0.150635 10.813V27.187C0.150635 32.7827 4.68678 37.3191 10.2826 37.3191H26.657C32.2528 37.3191 36.7889 32.7827 36.7889 27.187V10.813C36.7889 5.21724 32.2528 0.680847 26.657 0.680847ZM18.4699 31.8553C11.37 31.8553 5.61454 26.0998 5.61454 19C5.61454 11.9004 11.37 6.14499 18.4699 6.14499C25.5695 6.14499 31.325 11.9004 31.325 19C31.325 26.0998 25.5695 31.8553 18.4699 31.8553ZM30.471 9.49184C28.9031 9.49184 27.6318 8.2206 27.6318 6.65269C27.6318 5.0845 28.9031 3.81327 30.471 3.81327C32.0392 3.81327 33.3102 5.0845 33.3102 6.65269C33.3102 8.2206 32.0392 9.49184 30.471 9.49184Z" fill="white"/>
</g>
<defs>
<clipPath id="clip0_128_147">
<rect width="36.6383" height="36.6383" fill="white" transform="translate(0.150635 0.680847)"/>
</clipPath>
</defs>
</svg>
