<svg width="25" height="42" viewBox="0 0 25 42" fill="none" xmlns="http://www.w3.org/2000/svg">
<mask id="path-1-inside-1_128_124" fill="white">
<path fill-rule="evenodd" clip-rule="evenodd" d="M24.9998 4.65687C24.9998 1.09325 20.6912 -0.691422 18.1713 1.82844L1.82824 18.1715C0.26614 19.7336 0.266136 22.2663 1.82823 23.8284L18.1713 40.1715C20.6912 42.6913 24.9998 40.9067 24.9998 37.3431L24.9998 4.65687Z"/>
</mask>
<path d="M1.82824 18.1715L3.24245 19.5857L1.82824 18.1715ZM3.24245 19.5857L19.5855 3.24265L16.7571 0.414222L0.414023 16.7573L3.24245 19.5857ZM19.5855 38.7573L3.24245 22.4142L0.414018 25.2426L16.7571 41.5857L19.5855 38.7573ZM26.9998 37.3431L26.9998 4.65687L22.9998 4.65687L22.9998 37.3431L26.9998 37.3431ZM16.7571 41.5857C20.5369 45.3655 26.9998 42.6885 26.9998 37.3431L22.9998 37.3431C22.9998 39.1249 20.8455 40.0172 19.5855 38.7573L16.7571 41.5857ZM19.5855 3.24265C20.8455 1.98272 22.9998 2.87505 22.9998 4.65687L26.9998 4.65687C26.9998 -0.688556 20.5369 -3.36557 16.7571 0.414222L19.5855 3.24265ZM0.414023 16.7573C-1.92912 19.1005 -1.92913 22.8994 0.414018 25.2426L3.24245 22.4142C2.4614 21.6331 2.4614 20.3668 3.24245 19.5857L0.414023 16.7573Z" fill="#B6B6B6" mask="url(#path-1-inside-1_128_124)"/>
</svg>
