<svg width="25" height="42" viewBox="0 0 25 42" fill="none" xmlns="http://www.w3.org/2000/svg">
<mask id="path-1-inside-1_128_121" fill="white">
<path fill-rule="evenodd" clip-rule="evenodd" d="M-0.00012207 37.3431C-0.00012207 40.9068 4.30844 42.6914 6.8283 40.1716L23.1714 23.8285C24.7335 22.2664 24.7335 19.7337 23.1714 18.1716L6.82831 1.82852C4.30845 -0.691342 -0.00012207 1.09333 -0.00012207 4.65694V37.3431Z"/>
</mask>
<path d="M21.7572 22.4143L5.41409 38.7574L8.24251 41.5858L24.5856 25.2427L21.7572 22.4143ZM5.41409 3.24273L21.7572 19.5858L24.5856 16.7574L8.24252 0.414304L5.41409 3.24273ZM-2.00012 4.65694V37.3431H1.99988V4.65694H-2.00012ZM8.24252 0.414304C4.46273 -3.36548 -2.00012 -0.688485 -2.00012 4.65694H1.99988C1.99988 2.87514 4.15416 1.9828 5.41409 3.24273L8.24252 0.414304ZM5.41409 38.7574C4.15416 40.0173 1.99988 39.1249 1.99988 37.3431H-2.00012C-2.00012 42.6886 4.46272 45.3656 8.24251 41.5858L5.41409 38.7574ZM24.5856 25.2427C26.9288 22.8995 26.9288 19.1005 24.5856 16.7574L21.7572 19.5858C22.5382 20.3669 22.5382 21.6332 21.7572 22.4143L24.5856 25.2427Z" fill="#534340" fill-opacity="0.3" mask="url(#path-1-inside-1_128_121)"/>
</svg>
