<svg width="32" height="36" viewBox="0 0 32 36" fill="none" xmlns="http://www.w3.org/2000/svg">
<path d="M25.0945 9.96684C25.0945 14.9071 21.0348 18.9337 16 18.9337C10.9652 18.9337 6.90546 14.9071 6.90546 9.96684C6.90546 5.02656 10.9652 1 16 1C21.0348 1 25.0945 5.02656 25.0945 9.96684ZM30.8116 32.1789L20.3359 34.5213C17.4815 35.1596 14.5185 35.1596 11.6641 34.5213L1.18835 32.1789C2.18389 29.8752 3.96427 27.8217 6.36014 26.2875C9.10934 24.5271 12.498 23.5619 16 23.5619C19.502 23.5619 22.8907 24.5272 25.6399 26.2875C28.0357 27.8217 29.8161 29.8752 30.8116 32.1789Z" stroke="#534340" stroke-opacity="0.9" stroke-width="2" stroke-linecap="round"/>
</svg>
